<?xml version="1.0" encoding="utf-8"?>
<!-- Generator: Adobe Illustrator 25.2.1, SVG Export Plug-In . SVG Version: 6.00 Build 0)  -->
<svg version="1.1" id="Warstwa_1" xmlns="http://www.w3.org/2000/svg" xmlns:xlink="http://www.w3.org/1999/xlink" x="0px" y="0px"
	 viewBox="0 0 440 440" style="enable-background:new 0 0 440 440;" xml:space="preserve">
<style type="text/css">
	.st0{fill:#0D1129;}
	.st1{fill:#A1EC1A;}
	.st2{fill:#FFFFFF;}
</style>
<rect class="st0" width="440" height="440"/>
<g>
	<g>
		<path class="st1" d="M329.1-1.8c0,0-76.7,100.2-101.9,129.5c9.5,2.7,18.6,4.8,27.3,8c33.4,12.5,59,49.7,57.5,89.3
			c-2,53.8-51.1,94.2-102.8,88.3c-51.4-5.8-89.1-54.2-80.8-106.4c2.2-13.8,6.3-25.5,15.8-38.2c31.1-40.5,38.9-44.8,58.3-67.3
			c1.8-2.1,3.6-4.2,5.5-6.4c-32.1-5.8-85.3,31-104.3,71.6C78.8,219.7,93,282.6,137.8,320c44,36.6,114,43.1,168.4-3.5
			c7,9.2,14.1,18.3,22.2,29c-8.6,5.8-16.6,12.1-25.3,17c-54.9,30.9-111,32-165.3,0.7C83.4,331.8,55.2,282.6,56,219.6
			c1.2-92.7,75.2-164.1,167.4-161.9c5.7,0.1,14.6,0.7,14.6,0.7l44.2-53C293.8-8.4,313.9-11.5,329.1-1.8L329.1-1.8z M275.4,230.7
			c5.2-31.1-15.4-59.5-46.4-65.2c-32.9-6-72.4,22.2-64.9,65.8c3.3,18.9,15.8,35.1,33.6,42.3C232.9,287.8,269.5,265.9,275.4,230.7z"
			/>
	</g>
</g>
<path class="st2" d="M384,219.6c0.5,40.3-10.8,74.9-33.3,102.8l-24.5-28.9c25-36.8,29.8-84.9,10.2-126.9
	c-11.2-23.9-34.2-46.4-57.8-59.8l23.6-28C350.7,106.5,383.2,158.4,384,219.6z"/>
</svg>
